<svg xmlns="http://www.w3.org/2000/svg" width="1em" height="1em" viewBox="0 0 128 128">
<path fill="#f5f5f5" d="M 127.27 64 C 127.27 98.886 98.888 127.27 64 127.27 C 29.114 127.27 0.73 98.887 0.73 64 C 0.73 29.113 29.114 0.73 64 0.73 C 98.887 0.73 127.27 29.114 127.27 64 Z M 63.469 103.176 L 63.42 84.7 L 39.222 73.506 C 38.506 73.176 38.059 72.446 38.089 71.656 L 38.384 63.856 L 29.38 59.24 C 28.491 59.953 27.414 60.394 26.28 60.508 C 22.997 60.847 20.06 58.461 19.72 55.178 C 19.531 53.102 20.437 51.078 22.111 49.836 C 25.806 47.093 31.085 49.379 31.612 53.951 C 31.682 54.629 31.629 55.291 31.482 55.921 L 41.279 60.946 C 41.955 61.294 42.37 62.001 42.342 62.761 L 42.05 70.503 L 63.42 80.387 L 63.42 67.663 L 50.61 60.933 C 49.966 60.595 49.562 59.928 49.562 59.2 L 49.562 43.248 L 43.297 38.446 C 40.704 39.891 37.444 39.215 35.64 36.858 C 32.842 33.204 35.049 27.892 39.613 27.297 C 44.176 26.701 47.673 31.268 45.907 35.518 L 52.709 40.728 C 53.193 41.097 53.477 41.671 53.476 42.28 L 53.476 58.016 L 63.419 63.24 L 63.419 28.596 C 61.225 27.838 59.67 25.877 59.431 23.568 C 59.37 22.985 59.396 22.397 59.507 21.821 C 60.376 17.303 65.81 15.42 69.288 18.432 C 72.767 21.444 71.68 27.092 67.333 28.598 L 67.333 49.842 L 81.401 42.965 L 81.401 37.895 C 79.205 37.14 77.648 35.178 77.411 32.868 C 77.07 29.584 79.458 26.646 82.743 26.308 C 86.026 25.968 88.964 28.354 89.303 31.638 C 89.586 34.398 87.934 36.989 85.313 37.898 L 85.313 44.188 C 85.314 44.935 84.888 45.616 84.216 45.943 L 67.332 54.2 L 67.332 90.992 L 75.4 87.262 L 75.42 70.342 C 75.42 69.636 75.803 68.986 76.42 68.636 L 96.49 57.366 L 96.49 53.76 C 95.33 53.358 94.322 52.609 93.602 51.614 C 90.908 47.887 93.259 42.64 97.834 42.17 C 99.483 41.996 101.129 42.515 102.38 43.603 C 105.85 46.621 104.753 52.264 100.404 53.76 L 100.404 58.504 C 100.404 59.21 100.021 59.864 99.404 60.21 L 79.334 71.486 L 79.314 88.512 C 79.312 89.273 78.87 89.965 78.179 90.285 L 67.336 95.302 L 67.336 105.522 L 91.936 93.062 L 91.936 87.972 C 89.741 87.214 88.184 85.252 87.946 82.942 C 87.692 80.764 88.651 78.621 90.445 77.36 C 94.21 74.713 99.428 77.133 99.838 81.717 C 100.12 84.476 98.468 87.067 95.848 87.975 L 95.848 94.265 C 95.848 95.003 95.433 95.678 94.775 96.012 L 67.335 109.912 L 67.335 120.9 L 67.334 120.902 C 97.926 120.943 121.008 94.315 121.008 64 C 121.008 32.566 95.435 6.99 64.002 6.99 C 32.566 6.99 6.992 32.566 6.992 64 C 6.992 91.815 33.349 120.943 63.42 120.993 L 63.404 107.033 C 63.404 107.033 49.498 102.013 47.637 101.257 C 46.445 100.773 47.523 96.57 46.608 96.041 C 44.303 95.086 39.366 92.448 39.366 92.448 C 36.784 95.141 32.394 94.837 30.208 91.813 C 27.514 88.085 29.866 82.837 34.442 82.368 C 38.202 81.977 41.375 85.133 41.005 88.895 L 49.901 94.077 C 51.505 94.784 50.354 98.478 51.327 98.725 L 63.469 103.176 Z" style=""></path></svg>
